<?xml version="1.0" standalone="no"?>
<!DOCTYPE svg PUBLIC "-//W3C//DTD SVG 20010904//EN"
 "http://www.w3.org/TR/2001/REC-SVG-20010904/DTD/svg10.dtd">
<svg version="1.0" xmlns="http://www.w3.org/2000/svg"
 width="107.000000pt" height="110.000000pt" viewBox="0 0 107.000000 110.000000"
 preserveAspectRatio="xMidYMid meet">

<g transform="translate(0.000000,110.000000) scale(0.100000,-0.100000)"
fill="#000000" stroke="none">
<path d="M0 868 c0 -219 1 -230 18 -215 9 8 43 25 74 37 l58 21 -24 47 c-23
45 -30 71 -27 99 2 21 112 123 132 123 10 0 44 -11 75 -25 31 -14 60 -25 64
-25 5 0 18 28 29 62 31 92 39 98 136 98 97 0 105 -6 136 -99 23 -68 24 -69
101 -30 62 31 87 26 146 -34 60 -61 64 -84 28 -162 -13 -27 -22 -53 -20 -56 2
-3 24 -12 49 -19 25 -7 57 -22 70 -32 l25 -19 0 230 0 231 -535 0 -535 0 0
-232z"/>
<path d="M440 933 c-32 -93 -38 -102 -111 -173 -71 -69 -84 -78 -173 -110
l-96 -34 0 -60 0 -61 96 -34 c91 -32 102 -39 174 -110 72 -72 78 -82 111 -173
l34 -98 61 0 61 0 33 98 c30 87 40 103 90 152 31 30 61 63 66 72 5 9 56 34
114 55 l105 38 3 61 3 60 -97 34 c-92 32 -102 38 -174 110 -72 72 -78 82 -110
173 l-33 97 -61 0 -62 0 -34 -97z m178 -208 c172 -73 156 -319 -25 -371 -48
-14 -58 -14 -107 0 -65 19 -119 74 -136 138 -42 155 119 295 268 233z"/>
<path d="M465 660 c-35 -23 -65 -74 -65 -111 0 -30 19 -89 29 -89 3 0 50 44
104 98 l98 98 -26 12 c-40 18 -106 15 -140 -8z"/>
<path d="M553 535 c-51 -51 -93 -98 -93 -103 0 -6 16 -16 36 -22 97 -32 193
46 181 148 -9 82 -22 80 -124 -23z"/>
<path d="M197 882 c-20 -21 -37 -43 -37 -50 0 -18 43 -102 52 -102 4 0 20 14
35 31 40 45 87 89 96 89 4 0 7 5 7 10 0 8 -97 60 -112 60 -2 0 -21 -17 -41
-38z"/>
<path d="M768 894 c-43 -22 -63 -44 -40 -44 7 0 50 -41 107 -102 9 -10 19 -18
23 -18 7 0 52 98 52 112 0 13 -70 78 -83 78 -7 -1 -33 -12 -59 -26z"/>
<path d="M1054 463 c-6 -10 -41 -29 -78 -41 -36 -13 -66 -26 -66 -28 0 -3 14
-31 30 -64 41 -82 39 -101 -17 -162 -68 -71 -82 -75 -161 -38 -35 16 -68 30
-72 30 -4 0 -13 -20 -20 -45 -7 -25 -22 -57 -32 -70 -18 -23 -26 -25 -102 -25
-96 0 -103 5 -132 88 -10 28 -22 52 -25 52 -3 0 -36 -13 -72 -30 -37 -16 -71
-30 -78 -30 -6 0 -37 25 -70 57 -70 67 -73 85 -29 173 17 33 30 61 30 63 0 3
-28 14 -63 27 -34 12 -70 29 -79 38 -17 14 -18 3 -18 -221 l0 -237 535 0 535
0 0 240 c0 132 -1 240 -3 240 -1 0 -7 -8 -13 -17z"/>
<path d="M780 309 c-36 -38 -66 -73 -68 -79 -4 -10 89 -60 112 -60 18 0 86 63
86 79 0 11 -58 132 -63 130 -1 0 -31 -32 -67 -70z"/>
<path d="M186 314 c-14 -31 -26 -62 -26 -68 0 -7 17 -29 38 -49 l38 -37 62 30
c34 16 62 34 62 39 0 11 -130 141 -141 141 -4 0 -19 -25 -33 -56z"/>
</g>
</svg>
